<svg width="182" height="67" viewBox="0 0 182 67" fill="none" xmlns="http://www.w3.org/2000/svg">
<g filter="url(#filter0_d_16_3534)">
<rect x="4" y="4" width="166" height="51" rx="25.5" fill="#F25822"/>
<path d="M37.1477 35V23.3636H39.2557V33.233H44.3807V35H37.1477ZM49.983 35.1705C49.108 35.1705 48.3523 34.9886 47.7159 34.625C47.0833 34.2576 46.5966 33.7386 46.2557 33.0682C45.9148 32.3939 45.7443 31.6004 45.7443 30.6875C45.7443 29.7898 45.9148 29.0019 46.2557 28.3239C46.6004 27.642 47.0814 27.1117 47.6989 26.733C48.3163 26.3504 49.0417 26.1591 49.875 26.1591C50.4129 26.1591 50.9205 26.2462 51.3977 26.4205C51.8788 26.5909 52.303 26.8561 52.6705 27.2159C53.0417 27.5758 53.3333 28.0341 53.5455 28.5909C53.7576 29.1439 53.8636 29.803 53.8636 30.5682V31.1989H46.7102V29.8125H51.892C51.8883 29.4186 51.803 29.0682 51.6364 28.7614C51.4697 28.4508 51.2367 28.2064 50.9375 28.0284C50.642 27.8504 50.2973 27.7614 49.9034 27.7614C49.483 27.7614 49.1136 27.8636 48.7955 28.0682C48.4773 28.2689 48.2292 28.5341 48.0511 28.8636C47.8769 29.1894 47.7879 29.5473 47.7841 29.9375V31.1477C47.7841 31.6553 47.8769 32.0909 48.0625 32.4545C48.2481 32.8144 48.5076 33.0909 48.8409 33.2841C49.1742 33.4735 49.5644 33.5682 50.0114 33.5682C50.3106 33.5682 50.5814 33.5265 50.8239 33.4432C51.0663 33.3561 51.2765 33.2292 51.4545 33.0625C51.6326 32.8958 51.767 32.6894 51.858 32.4432L53.7784 32.6591C53.6572 33.1667 53.4261 33.6098 53.0852 33.9886C52.7481 34.3636 52.3163 34.6553 51.7898 34.8636C51.2633 35.0682 50.661 35.1705 49.983 35.1705ZM58.1151 35.1761C57.562 35.1761 57.0639 35.0777 56.6207 34.8807C56.1813 34.6799 55.8329 34.3845 55.5753 33.9943C55.3215 33.6042 55.1946 33.1231 55.1946 32.5511C55.1946 32.0587 55.2855 31.6515 55.4673 31.3295C55.6491 31.0076 55.8973 30.75 56.2116 30.5568C56.526 30.3636 56.8802 30.2178 57.2741 30.1193C57.6719 30.017 58.0829 29.9432 58.5071 29.8977C59.0185 29.8447 59.4332 29.7973 59.7514 29.7557C60.0696 29.7102 60.3007 29.642 60.4446 29.5511C60.5923 29.4564 60.6662 29.3106 60.6662 29.1136V29.0795C60.6662 28.6515 60.5393 28.3201 60.2855 28.0852C60.0317 27.8504 59.6662 27.733 59.1889 27.733C58.6851 27.733 58.2855 27.8428 57.9901 28.0625C57.6984 28.2822 57.5014 28.5417 57.3991 28.8409L55.4787 28.5682C55.6302 28.0379 55.8802 27.5947 56.2287 27.2386C56.5772 26.8788 57.0033 26.6098 57.5071 26.4318C58.0109 26.25 58.5677 26.1591 59.1776 26.1591C59.598 26.1591 60.0166 26.2083 60.4332 26.3068C60.8499 26.4053 61.2306 26.5682 61.5753 26.7955C61.92 27.0189 62.1965 27.3239 62.4048 27.7102C62.617 28.0966 62.723 28.5795 62.723 29.1591V35H60.7457V33.8011H60.6776C60.5526 34.0436 60.3764 34.2708 60.1491 34.483C59.9257 34.6913 59.6435 34.8598 59.3026 34.9886C58.9654 35.1136 58.5696 35.1761 58.1151 35.1761ZM58.6491 33.6648C59.062 33.6648 59.42 33.5833 59.723 33.4205C60.026 33.2538 60.259 33.0341 60.4219 32.7614C60.5885 32.4886 60.6719 32.1913 60.6719 31.8693V30.8409C60.6075 30.8939 60.4976 30.9432 60.3423 30.9886C60.1908 31.0341 60.0204 31.0739 59.831 31.108C59.6416 31.142 59.4541 31.1723 59.2685 31.1989C59.0829 31.2254 58.9219 31.2481 58.7855 31.267C58.4787 31.3087 58.2041 31.3769 57.9616 31.4716C57.7192 31.5663 57.5279 31.6989 57.3878 31.8693C57.2476 32.036 57.1776 32.2519 57.1776 32.517C57.1776 32.8958 57.3158 33.1818 57.5923 33.375C57.8688 33.5682 58.2211 33.6648 58.6491 33.6648ZM64.7912 35V26.2727H66.7855V27.7273H66.8764C67.0355 27.2235 67.3082 26.8352 67.6946 26.5625C68.0848 26.286 68.5298 26.1477 69.0298 26.1477C69.1435 26.1477 69.2704 26.1534 69.4105 26.1648C69.5545 26.1723 69.6738 26.1856 69.7685 26.2045V28.0966C69.6813 28.0663 69.5431 28.0398 69.3537 28.017C69.1681 27.9905 68.9882 27.9773 68.8139 27.9773C68.4389 27.9773 68.1018 28.0587 67.8026 28.2216C67.5071 28.3807 67.2741 28.6023 67.1037 28.8864C66.9332 29.1705 66.848 29.4981 66.848 29.8693V35H64.7912ZM73.1918 29.8864V35H71.1349V26.2727H73.1009V27.7557H73.2031C73.4039 27.267 73.724 26.8788 74.1634 26.5909C74.6065 26.303 75.1539 26.1591 75.8054 26.1591C76.4077 26.1591 76.9323 26.2879 77.3793 26.5455C77.83 26.803 78.1785 27.1761 78.4247 27.6648C78.6747 28.1534 78.7978 28.7462 78.794 29.4432V35H76.7372V29.7614C76.7372 29.178 76.5857 28.7216 76.2827 28.392C75.9834 28.0625 75.5687 27.8977 75.0384 27.8977C74.6785 27.8977 74.3584 27.9773 74.0781 28.1364C73.8016 28.2917 73.5838 28.517 73.4247 28.8125C73.2694 29.108 73.1918 29.4659 73.1918 29.8864ZM84.9446 23.3636H87.5241L90.9787 31.7955H91.1151L94.5696 23.3636H97.1491V35H95.1264V27.0057H95.0185L91.8026 34.9659H90.2912L87.0753 26.9886H86.9673V35H84.9446V23.3636ZM103.161 35.1705C102.308 35.1705 101.57 34.983 100.945 34.608C100.32 34.233 99.8348 33.7083 99.4901 33.0341C99.1491 32.3598 98.9787 31.572 98.9787 30.6705C98.9787 29.7689 99.1491 28.9792 99.4901 28.3011C99.8348 27.6231 100.32 27.0966 100.945 26.7216C101.57 26.3466 102.308 26.1591 103.161 26.1591C104.013 26.1591 104.751 26.3466 105.376 26.7216C106.001 27.0966 106.484 27.6231 106.825 28.3011C107.17 28.9792 107.342 29.7689 107.342 30.6705C107.342 31.572 107.17 32.3598 106.825 33.0341C106.484 33.7083 106.001 34.233 105.376 34.608C104.751 34.983 104.013 35.1705 103.161 35.1705ZM103.172 33.5227C103.634 33.5227 104.02 33.3958 104.331 33.142C104.642 32.8845 104.873 32.5398 105.024 32.108C105.179 31.6761 105.257 31.1951 105.257 30.6648C105.257 30.1307 105.179 29.6477 105.024 29.2159C104.873 28.7803 104.642 28.4337 104.331 28.1761C104.02 27.9186 103.634 27.7898 103.172 27.7898C102.698 27.7898 102.304 27.9186 101.99 28.1761C101.679 28.4337 101.446 28.7803 101.291 29.2159C101.14 29.6477 101.064 30.1307 101.064 30.6648C101.064 31.1951 101.14 31.6761 101.291 32.108C101.446 32.5398 101.679 32.8845 101.99 33.142C102.304 33.3958 102.698 33.5227 103.172 33.5227ZM109.088 35V26.2727H111.082V27.7273H111.173C111.332 27.2235 111.605 26.8352 111.991 26.5625C112.382 26.286 112.827 26.1477 113.327 26.1477C113.44 26.1477 113.567 26.1534 113.707 26.1648C113.851 26.1723 113.971 26.1856 114.065 26.2045V28.0966C113.978 28.0663 113.84 28.0398 113.651 28.017C113.465 27.9905 113.285 27.9773 113.111 27.9773C112.736 27.9773 112.399 28.0587 112.099 28.2216C111.804 28.3807 111.571 28.6023 111.401 28.8864C111.23 29.1705 111.145 29.4981 111.145 29.8693V35H109.088ZM118.936 35.1705C118.061 35.1705 117.305 34.9886 116.669 34.625C116.036 34.2576 115.55 33.7386 115.209 33.0682C114.868 32.3939 114.697 31.6004 114.697 30.6875C114.697 29.7898 114.868 29.0019 115.209 28.3239C115.554 27.642 116.035 27.1117 116.652 26.733C117.269 26.3504 117.995 26.1591 118.828 26.1591C119.366 26.1591 119.874 26.2462 120.351 26.4205C120.832 26.5909 121.256 26.8561 121.624 27.2159C121.995 27.5758 122.286 28.0341 122.499 28.5909C122.711 29.1439 122.817 29.803 122.817 30.5682V31.1989H115.663V29.8125H120.845C120.841 29.4186 120.756 29.0682 120.589 28.7614C120.423 28.4508 120.19 28.2064 119.891 28.0284C119.595 27.8504 119.25 27.7614 118.857 27.7614C118.436 27.7614 118.067 27.8636 117.749 28.0682C117.43 28.2689 117.182 28.5341 117.004 28.8636C116.83 29.1894 116.741 29.5473 116.737 29.9375V31.1477C116.737 31.6553 116.83 32.0909 117.016 32.4545C117.201 32.8144 117.461 33.0909 117.794 33.2841C118.127 33.4735 118.518 33.5682 118.964 33.5682C119.264 33.5682 119.535 33.5265 119.777 33.4432C120.019 33.3561 120.23 33.2292 120.408 33.0625C120.586 32.8958 120.72 32.6894 120.811 32.4432L122.732 32.6591C122.61 33.1667 122.379 33.6098 122.038 33.9886C121.701 34.3636 121.269 34.6553 120.743 34.8636C120.216 35.0682 119.614 35.1705 118.936 35.1705Z" fill="white"/>
<path d="M130.5 33.5L134.5 29.5L130.5 25.5" stroke="white" stroke-linecap="round" stroke-linejoin="round"/>
</g>
<defs>
<filter id="filter0_d_16_3534" x="0" y="0" width="182" height="67" filterUnits="userSpaceOnUse" color-interpolation-filters="sRGB">
<feFlood flood-opacity="0" result="BackgroundImageFix"/>
<feColorMatrix in="SourceAlpha" type="matrix" values="0 0 0 0 0 0 0 0 0 0 0 0 0 0 0 0 0 0 127 0" result="hardAlpha"/>
<feOffset dx="4" dy="4"/>
<feGaussianBlur stdDeviation="4"/>
<feColorMatrix type="matrix" values="0 0 0 0 0.94902 0 0 0 0 0.345098 0 0 0 0 0.133333 0 0 0 0.2 0"/>
<feBlend mode="normal" in2="BackgroundImageFix" result="effect1_dropShadow_16_3534"/>
<feBlend mode="normal" in="SourceGraphic" in2="effect1_dropShadow_16_3534" result="shape"/>
</filter>
</defs>
</svg>
