<svg width="15" height="15" viewBox="0 0 15 15" fill="none" xmlns="http://www.w3.org/2000/svg">
<path d="M7.5033 3.68162C5.37383 3.68162 3.6562 5.38494 3.6562 7.49666C3.6562 9.60838 5.37383 11.3117 7.5033 11.3117C9.63276 11.3117 11.3504 9.60838 11.3504 7.49666C11.3504 5.38494 9.63276 3.68162 7.5033 3.68162ZM7.5033 9.97693C6.12718 9.97693 5.00218 8.86463 5.00218 7.49666C5.00218 6.12869 6.12383 5.01639 7.5033 5.01639C8.88276 5.01639 10.0044 6.12869 10.0044 7.49666C10.0044 8.86463 8.87941 9.97693 7.5033 9.97693V9.97693ZM12.4051 3.52557C12.4051 4.02029 12.0033 4.41541 11.5078 4.41541C11.0089 4.41541 10.6104 4.01697 10.6104 3.52557C10.6104 3.03416 11.0122 2.63572 11.5078 2.63572C12.0033 2.63572 12.4051 3.03416 12.4051 3.52557ZM14.9531 4.42869C14.8962 3.2367 14.6216 2.18084 13.741 1.31092C12.8638 0.440997 11.7991 0.168732 10.597 0.108966C9.35821 0.0392395 5.64504 0.0392395 4.4062 0.108966C3.20754 0.165411 2.14281 0.437677 1.26222 1.3076C0.381644 2.17752 0.110439 3.23338 0.0501709 4.42537C-0.0201416 5.65389 -0.0201416 9.33611 0.0501709 10.5646C0.107091 11.7566 0.381644 12.8125 1.26222 13.6824C2.14281 14.5523 3.20419 14.8246 4.4062 14.8844C5.64504 14.9541 9.35821 14.9541 10.597 14.8844C11.7991 14.8279 12.8638 14.5556 13.741 13.6824C14.6183 12.8125 14.8928 11.7566 14.9531 10.5646C15.0234 9.33611 15.0234 5.65721 14.9531 4.42869V4.42869ZM13.3526 11.8828C13.0915 12.5336 12.5859 13.0349 11.9263 13.2972C10.9386 13.6857 8.59482 13.5961 7.5033 13.5961C6.41178 13.5961 4.06468 13.6824 3.08031 13.2972C2.42406 13.0383 1.91847 12.5369 1.65397 11.8828C1.26222 10.9033 1.35263 8.57908 1.35263 7.49666C1.35263 6.41424 1.26557 4.0867 1.65397 3.11053C1.91513 2.45975 2.42071 1.95838 3.08031 1.69608C4.06803 1.3076 6.41178 1.39725 7.5033 1.39725C8.59482 1.39725 10.9419 1.31092 11.9263 1.69608C12.5825 1.95506 13.0881 2.45643 13.3526 3.11053C13.7444 4.09002 13.654 6.41424 13.654 7.49666C13.654 8.57908 13.7444 10.9066 13.3526 11.8828Z" fill="black"/>
</svg>
